<svg xmlns="http://www.w3.org/2000/svg" width="24" height="24" viewBox="0 0 24 24"><path d="M0,0H24V24H0Z" fill="none" opacity="0"/><path d="M10,0A10,10,0,1,0,20,10,10,10,0,0,0,10,0Zm5.25,10.81a3.908,3.908,0,0,1-.03.49c-.15,1.77-1.2,2.65-3.12,2.65h-.26a.54.54,0,0,0-.42.21l-.79,1.05a.739.739,0,0,1-1.26,0l-.79-1.05a.631.631,0,0,0-.42-.21H7.9c-2.09,0-3.15-.52-3.15-3.15V8.17c0-1.92.89-2.97,2.65-3.12.16-.01.33-.01.5-.01h4.2c2.09,0,3.15,1.05,3.15,3.15Z" transform="translate(2 2)" fill="#14b8a6"/></svg>