<svg xmlns="http://www.w3.org/2000/svg" width="24" height="24" viewBox="0 0 24 24"><path d="M11.913.882,7.223.142c-3.91-.61-5.72.71-6.34,4.62l-.74,4.69c-.4,2.56.02,4.22,1.47,5.23a7.352,7.352,0,0,0,3.15,1.11l4.69.74c3.91.61,5.72-.71,6.34-4.62l.73-4.69a9.574,9.574,0,0,0,.13-2.07C16.523,2.652,15.053,1.372,11.913.882Zm-5.65,6.47a2.115,2.115,0,1,1,2.11-2.11A2.119,2.119,0,0,1,6.263,7.352Z" transform="translate(1.977 1.998)" fill="#9ca3af"/><path d="M16.11,5.66l-1.5,4.51c-1.25,3.76-3.25,4.76-7.01,3.51l-4.51-1.5A7.1,7.1,0,0,1,0,10.4a10.253,10.253,0,0,0,2.19.57l4.7.74a11.694,11.694,0,0,0,1.8.15c3.3,0,5.07-1.78,5.68-5.61l.73-4.69A9.1,9.1,0,0,0,15.24,0C16.76,1.25,16.98,3.03,16.11,5.66Z" transform="translate(4.39 7.81)" fill="#9ca3af"/><path d="M0,0H24V24H0Z" transform="translate(24 24) rotate(180)" fill="none" opacity="0"/></svg>