<svg xmlns="http://www.w3.org/2000/svg" width="24" height="24" viewBox="0 0 24 24"><path d="M0,0H24V24H0Z" fill="none" opacity="0"/><path d="M6.97,1.33A3.944,3.944,0,0,0,4,0,4,4,0,0,0,1.13,1.21,3.945,3.945,0,0,0,.2,2.74,4.054,4.054,0,0,0,0,4,3.921,3.921,0,0,0,.58,6.06a3.684,3.684,0,0,0,.76.91A3.921,3.921,0,0,0,4,8a3.686,3.686,0,0,0,1.25-.21A3.9,3.9,0,0,0,7.42,6.06a3.734,3.734,0,0,0,.46-1.13A3.594,3.594,0,0,0,8,4,3.984,3.984,0,0,0,6.97,1.33ZM5.49,4.73H4.75v.78a.75.75,0,0,1-1.5,0V4.73H2.51a.75.75,0,0,1,0-1.5h.74V2.52a.75.75,0,1,1,1.5,0v.71h.74a.75.75,0,0,1,0,1.5Z" transform="translate(15 1)" fill="#f43f5e"/><path d="M20,10a9.821,9.821,0,0,0-.72-3.72,3.81,3.81,0,0,1-1.03.51,3.374,3.374,0,0,1-.34.1,8.48,8.48,0,0,1-1.87,9.08,4.628,4.628,0,0,0-1.1-1,9.622,9.622,0,0,0-9.88,0,4.829,4.829,0,0,0-1.1,1A8.491,8.491,0,0,1,13.1,2.09c.03-.12.06-.23.1-.35A3.512,3.512,0,0,1,13.72.72,9.82,9.82,0,0,0,10,0,9.986,9.986,0,0,0,3.23,17.34c0,.01,0,.01-.01.02.1.1.22.18.32.27a2.1,2.1,0,0,0,.17.14c.18.15.38.29.57.43l.2.14a5.953,5.953,0,0,0,.6.36c.07.04.15.09.22.13a6.093,6.093,0,0,0,.63.3,2.557,2.557,0,0,0,.24.11q.33.135.66.24a2.25,2.25,0,0,0,.24.08c.24.07.48.13.72.19a1.419,1.419,0,0,0,.22.05,7.914,7.914,0,0,0,.85.13.5.5,0,0,1,.12.02c.34.03.68.05,1.02.05s.68-.02,1.01-.05a.5.5,0,0,0,.12-.02,7.914,7.914,0,0,0,.85-.13c.07-.01.14-.04.22-.05.24-.06.49-.11.72-.19a2.25,2.25,0,0,1,.24-.08c.22-.08.45-.15.66-.24a2.557,2.557,0,0,0,.24-.11q.315-.135.63-.3c.08-.04.15-.09.22-.13.2-.12.4-.23.6-.36a2.426,2.426,0,0,0,.2-.14c.2-.14.39-.28.57-.43a2.1,2.1,0,0,1,.17-.14c.11-.09.22-.18.32-.27,0-.01,0-.01-.01-.02A9.946,9.946,0,0,0,20,10Z" transform="translate(2 2)" fill="#f43f5e"/><path d="M3.75,0A3.745,3.745,0,0,0,3.7,7.49h.18A3.746,3.746,0,0,0,3.75,0Z" transform="translate(8.25 6.93)" fill="#f43f5e"/></svg>